IKResults
version=1
nRows=14
nColumns=40
inDegrees=yes

Units are S.I. units (second, meters, Newtons, ...)
Angles are in degrees.

endheader
time	pelvis_tilt	pelvis_list	pelvis_rotation	pelvis_tx	pelvis_ty	pelvis_tz	hip_flexion_r	hip_adduction_r	hip_rotation_r	knee_angle_r	knee_angle_r_beta	ankle_angle_r	subtalar_angle_r	mtp_angle_r	hip_flexion_l	hip_adduction_l	hip_rotation_l	knee_angle_l	knee_angle_l_beta	ankle_angle_l	subtalar_angle_l	mtp_angle_l	lumbar_extension	lumbar_bending	lumbar_rotation	arm_flex_r	arm_add_r	arm_rot_r	elbow_flex_r	pro_sup_r	wrist_flex_r	wrist_dev_r	arm_flex_l	arm_add_l	arm_rot_l	elbow_flex_l	pro_sup_l	wrist_flex_l	wrist_dev_l
      0.48000000	     15.71860513	     -1.72435227	      1.13009483	     -0.65858346	      0.94529696	      1.40527024	      5.61332511	     -2.24636599	    -15.66547664	    -32.44083484	     -0.56619938	      3.85379347	    -10.65609935	      7.85232081	    -23.94384433	     -0.07254801	     15.53256416	     -9.99607798	     -0.17446447	     12.92518050	     -2.19456615	     -8.32629378	    -25.71213199	      0.49612492	     -4.44539736	     -8.27933660	    -10.38104770	      1.76714591	     21.68519156	     89.95437384	      0.00000000	      0.00000000	     19.16752425	     12.86777990	      8.88791832	     34.87298778	     89.95437384	      0.00000000	      0.00000000
      0.49000000	     15.73228848	     -2.09587511	      1.30051089	     -0.64990810	      0.94416266	      1.40542010	      5.83746700	     -1.93911016	    -17.45113947	    -29.98014594	     -0.52325226	      3.08398289	     -9.07692989	      7.61997837	    -24.43961321	      0.36012275	     15.22340698	    -10.21130671	     -0.17822092	     13.52489425	     -1.64608035	     -8.27984795	    -25.76958291	      0.96632081	     -4.60735703	     -8.44787335	    -10.32343075	      1.24420976	     21.37485608	     89.95437384	      0.00000000	      0.00000000	     19.49968051	     12.98861008	      9.09489380	     36.45592141	     89.95437384	      0.00000000	      0.00000000
      0.50000000	     15.62044556	     -2.13072389	      1.48278923	     -0.64136576	      0.94276662	      1.40512204	      6.29181974	     -2.16979322	    -19.52416644	    -27.85580247	     -0.48617547	      1.94258303	     -6.97271720	      4.81875572	    -24.97535947	      0.28904944	     13.98012232	    -10.02636699	     -0.17499312	     14.03331175	     -0.04250939	     -8.17196004	    -25.69762177	      1.15003292	     -4.84937752	     -8.69055168	    -10.30299751	      0.84592685	     21.20647275	     89.95437384	      0.00000000	      0.00000000	     19.90389860	     13.08019852	      9.24052907	     37.88589561	     89.95437384	      0.00000000	      0.00000000
      0.51000000	     15.45389752	     -2.44445521	      1.55118427	     -0.63259271	      0.94112976	      1.40547304	      6.70905601	     -1.81568450	    -21.07544692	    -25.53749824	     -0.44571343	      0.77311230	     -5.52706163	      4.37734413	    -25.23346936	      0.66556158	     13.93489796	    -10.38802828	     -0.18130530	     14.60321225	      0.15699100	     -8.10380926	    -25.57199768	      1.52574111	     -4.93955389	     -8.88991920	    -10.28571811	      0.44618785	     21.00236776	     89.95437384	      0.00000000	      0.00000000	     20.13100187	     13.17533371	      9.49962627	     39.45137628	     89.95437384	      0.00000000	      0.00000000
      0.52000000	     15.33980928	     -2.75993417	      1.60806700	     -0.62369813	      0.93953330	      1.40591905	      7.05219344	     -1.47223532	    -22.66947230	    -23.45024856	     -0.40928405	     -0.24263249	     -3.83733067	      3.65861000	    -25.61211580	      1.04003115	     13.82339321	    -10.63728931	     -0.18565572	     15.09306333	      0.37713849	     -8.04768144	    -25.51043420	      1.89814151	     -5.00492591	     -9.11251040	    -10.28495748	      0.05927199	     20.88000881	     89.95437384	      0.00000000	      0.00000000	     20.34726187	     13.25061827	      9.83875925	     40.98864433	     89.95437384	      0.00000000	      0.00000000
      0.53000000	     15.21189475	     -3.05860491	      1.73420296	     -0.61455145	      0.93773731	      1.40633529	      7.38948111	     -1.13809524	    -24.37810783	    -21.55169390	     -0.37614802	     -0.73300140	     -1.53405511	      2.67806424	    -25.97524884	      1.44669280	     13.70472210	    -10.92918207	     -0.19075021	     15.55626992	      0.53843853	     -8.04410542	    -25.38775213	      2.28261800	     -5.09961125	     -9.34830763	    -10.29429634	     -0.27934389	     20.75029759	     89.95437384	      0.00000000	      0.00000000	     20.53107787	     13.32989820	      9.98580094	     42.45500606	     89.95437384	      0.00000000	      0.00000000
      0.54000000	     14.70547796	     -3.20792518	      1.49864403	     -0.60563473	      0.93529642	      1.40723888	      8.33850835	     -0.82998221	    -25.04672306	    -20.12138816	     -0.35118447	     -0.68691952	     -0.06320214	      2.24674337	    -25.98296277	      1.53459638	     13.64801171	    -11.11559818	     -0.19400379	     16.17208161	      0.54114498	     -8.02081217	    -24.92632567	      2.37693590	     -5.01859674	     -9.54745101	    -10.33517011	     -0.49039977	     20.68835321	     89.95437384	      0.00000000	      0.00000000	     20.59107071	     13.50767722	     10.05492173	     43.92820572	     89.95437384	      0.00000000	      0.00000000
      0.55000000	     14.81546672	     -3.28079526	      1.90262696	     -0.59569852	      0.93356890	      1.40724770	      8.49129297	     -1.20192594	    -28.45895503	    -19.22285203	     -0.33550206	     -0.82083687	      4.74101417	     -8.09995826	    -26.65084883	      1.83056470	     13.13302921	    -11.34332982	     -0.19797845	     16.43526531	      0.96138077	     -8.48266142	    -24.97600199	      2.63348491	     -5.39323352	     -9.85203545	    -10.32535362	     -0.81279392	     20.59671358	     89.95437384	      0.00000000	      0.00000000	     20.70295058	     13.59356549	     10.17018039	     45.21922629	     89.95437384	      0.00000000	      0.00000000
      0.56000000	     14.44384274	     -3.56847978	      1.87376449	     -0.58627483	      0.93128697	      1.40829464	      9.11962908	     -0.59388664	    -28.71048557	    -18.01643412	     -0.31444609	     -0.07311110	      6.15440824	     -8.30223270	    -26.77812038	      2.21251840	     13.00453588	    -11.64773591	     -0.20329134	     16.91982758	      0.97932639	     -8.49527293	    -24.59561448	      2.92065159	     -5.38035140	    -10.03011426	    -10.33200729	     -1.01628870	     20.43714605	     89.95437384	      0.00000000	      0.00000000	     20.72078776	     13.71230466	     10.27996247	     46.48382976	     89.95437384	      0.00000000	      0.00000000
      0.57000000	     14.46407353	     -3.76689602	      2.15309451	     -0.57656133	      0.92950659	      1.40892528	      9.30898135	     -0.46630944	    -30.49506337	    -17.42702681	     -0.30415900	      0.63338152	      9.90695361	     -9.08515908	    -27.19600710	      2.72150664	     13.19718096	    -12.17135188	     -0.21243016	     17.08261752	      0.37555456	     -8.76136996	    -24.61450389	      3.22978741	     -5.58358841	    -10.20990151	    -10.32980602	     -1.29406980	     20.34359436	     89.95437384	      0.00000000	      0.00000000	     20.87747702	     13.84626978	     10.25974808	     47.52461884	     89.95437384	      0.00000000	      0.00000000
      0.58000000	     14.17373949	     -3.93382891	      2.15558079	     -0.56682976	      0.92743856	      1.40989771	      9.78676562	     -0.01230514	    -30.31356605	    -16.79602741	     -0.29314598	      1.44984537	     10.63742362	     -9.27526971	    -27.44984850	      3.00033656	     13.06361743	    -12.45394152	     -0.21736228	     17.34788680	      0.38222581	     -8.76264959	    -24.30505256	      3.41923721	     -5.62647586	    -10.31712565	    -10.34974933	     -1.41912190	     20.15653219	     89.95437384	      0.00000000	      0.00000000	     20.87264747	     13.96153983	     10.29562702	     48.50977733	     89.95437384	      0.00000000	      0.00000000
      0.59000000	     13.89140457	     -3.82744709	      2.17447224	     -0.55724958	      0.92546331	      1.41076296	     10.34230624	      0.02874544	    -30.09894979	    -16.75888357	     -0.29249770	      1.61162662	     10.55308969	     -9.19756776	    -27.60746257	      3.04021373	     12.93651355	    -12.86657253	     -0.22456405	     17.21074837	      0.37274235	     -8.66317072	    -24.03652959	      3.32288237	     -5.60838775	    -10.55707589	    -10.36676024	     -1.42363810	     20.17367851	     89.95437384	      0.00000000	      0.00000000	     21.13402857	     13.93338079	     10.30321903	     49.06968437	     89.95437384	      0.00000000	      0.00000000
      0.60000000	     13.73648057	     -4.12206418	      2.34780319	     -0.54692453	      0.92369894	      1.41158067	     10.39084680	      0.59128803	    -29.82274608	    -16.49432333	     -0.28788025	      2.73316568	     11.07241428	     -9.40688741	    -28.01982519	      3.52761508	     12.66127009	    -13.15884999	     -0.22966526	     17.64523688	      0.32861184	     -8.68391740	    -23.83773373	      3.72705197	     -5.79730281	    -10.52136782	    -10.41595706	     -1.57695899	     19.82092723	     89.95437384	      0.00000000	      0.00000000	     20.87011348	     14.09997662	     10.28630295	     50.10098979	     89.95437384	      0.00000000	      0.00000000
      0.61000000	     13.57512116	     -4.21084930	      2.64094416	     -0.53667954	      0.92208080	      1.41226159	     10.59607527	      0.78886205	    -29.43156568	    -16.98260990	     -0.29640246	      2.95035071	     10.79719437	     -9.36508652	    -28.20534888	      3.92172493	     12.36598939	    -13.79368870	     -0.24074528	     17.50624385	      0.35269205	     -8.58422317	    -23.65226296	      3.94318395	     -6.07227152	    -10.63372081	    -10.45071959	     -1.66604251	     19.78470327	     89.95437384	      0.00000000	      0.00000000	     20.76259733	     14.17795444	     10.32940853	     50.79665027	     89.95437384	      0.00000000	      0.00000000
